<mxfile host="app.diagrams.net" modified="2023-03-01T17:06:41.438Z" agent="5.0 (Macintosh; Intel Mac OS X 10_15_7) AppleWebKit/537.36 (KHTML, like Gecko) Chrome/110.0.0.0 Safari/537.36" etag="3992K9O4aIEJcww_qzYG" version="20.8.23" type="github">
  <diagram name="Page-1" id="my01R8dfBdF1uQlSD4Y0">
    <mxGraphModel dx="1428" dy="714" grid="1" gridSize="10" guides="1" tooltips="1" connect="1" arrows="1" fold="1" page="1" pageScale="1" pageWidth="850" pageHeight="1100" math="0" shadow="0">
      <root>
        <mxCell id="0" />
        <mxCell id="1" parent="0" />
        <mxCell id="XsQoimjce_yVpQ9bQ-w0-26" style="edgeStyle=orthogonalEdgeStyle;rounded=0;orthogonalLoop=1;jettySize=auto;html=1;" edge="1" parent="1">
          <mxGeometry relative="1" as="geometry">
            <mxPoint x="40" y="130" as="targetPoint" />
            <mxPoint x="40" y="90" as="sourcePoint" />
          </mxGeometry>
        </mxCell>
        <mxCell id="XsQoimjce_yVpQ9bQ-w0-2" value="push FE code to GH repo" style="text;strokeColor=none;align=center;fillColor=none;html=1;verticalAlign=middle;whiteSpace=wrap;rounded=0;" vertex="1" parent="1">
          <mxGeometry x="10" y="50" width="60" height="30" as="geometry" />
        </mxCell>
        <mxCell id="XsQoimjce_yVpQ9bQ-w0-3" value="" style="rounded=1;whiteSpace=wrap;html=1;arcSize=17;" vertex="1" parent="1">
          <mxGeometry x="105" y="20" width="615" height="560" as="geometry" />
        </mxCell>
        <mxCell id="XsQoimjce_yVpQ9bQ-w0-27" style="edgeStyle=orthogonalEdgeStyle;rounded=0;orthogonalLoop=1;jettySize=auto;html=1;exitX=1;exitY=0.5;exitDx=0;exitDy=0;exitPerimeter=0;entryX=0.041;entryY=0.267;entryDx=0;entryDy=0;entryPerimeter=0;" edge="1" parent="1" source="XsQoimjce_yVpQ9bQ-w0-6" target="XsQoimjce_yVpQ9bQ-w0-3">
          <mxGeometry relative="1" as="geometry" />
        </mxCell>
        <mxCell id="XsQoimjce_yVpQ9bQ-w0-6" value="" style="verticalLabelPosition=bottom;html=1;verticalAlign=top;align=center;strokeColor=none;fillColor=#00BEF2;shape=mxgraph.azure.github_code;pointerEvents=1;" vertex="1" parent="1">
          <mxGeometry x="10" y="145" width="50" height="50" as="geometry" />
        </mxCell>
        <mxCell id="XsQoimjce_yVpQ9bQ-w0-31" style="edgeStyle=orthogonalEdgeStyle;rounded=0;orthogonalLoop=1;jettySize=auto;html=1;entryX=0;entryY=0.5;entryDx=0;entryDy=0;entryPerimeter=0;" edge="1" parent="1" source="XsQoimjce_yVpQ9bQ-w0-7" target="XsQoimjce_yVpQ9bQ-w0-11">
          <mxGeometry relative="1" as="geometry" />
        </mxCell>
        <mxCell id="XsQoimjce_yVpQ9bQ-w0-7" value="" style="dashed=0;outlineConnect=0;html=1;align=center;labelPosition=center;verticalLabelPosition=bottom;verticalAlign=top;shape=mxgraph.webicons.github;gradientColor=#DFDEDE" vertex="1" parent="1">
          <mxGeometry x="140" y="130" width="60" height="53" as="geometry" />
        </mxCell>
        <mxCell id="XsQoimjce_yVpQ9bQ-w0-8" value="&lt;font style=&quot;font-size: 10px;&quot;&gt;GH Actions (CI/CD) copies files to S3 bucket&lt;br&gt;&lt;br&gt;&lt;/font&gt;" style="text;strokeColor=none;align=center;fillColor=none;html=1;verticalAlign=middle;whiteSpace=wrap;rounded=0;" vertex="1" parent="1">
          <mxGeometry x="140" y="210" width="60" height="30" as="geometry" />
        </mxCell>
        <mxCell id="XsQoimjce_yVpQ9bQ-w0-11" value="" style="outlineConnect=0;dashed=0;verticalLabelPosition=bottom;verticalAlign=top;align=center;html=1;shape=mxgraph.aws3.s3;fillColor=#E05243;gradientColor=none;" vertex="1" parent="1">
          <mxGeometry x="250" y="75" width="60" height="67" as="geometry" />
        </mxCell>
        <mxCell id="XsQoimjce_yVpQ9bQ-w0-12" value="" style="outlineConnect=0;dashed=0;verticalLabelPosition=bottom;verticalAlign=top;align=center;html=1;shape=mxgraph.aws3.cloudfront;fillColor=#F58536;gradientColor=none;" vertex="1" parent="1">
          <mxGeometry x="390" y="70" width="60" height="72" as="geometry" />
        </mxCell>
        <mxCell id="XsQoimjce_yVpQ9bQ-w0-42" style="edgeStyle=orthogonalEdgeStyle;rounded=0;orthogonalLoop=1;jettySize=auto;html=1;entryX=0.45;entryY=-0.006;entryDx=0;entryDy=0;entryPerimeter=0;fontSize=10;startArrow=classic;startFill=1;" edge="1" parent="1" target="XsQoimjce_yVpQ9bQ-w0-14">
          <mxGeometry relative="1" as="geometry">
            <mxPoint x="610" y="110" as="sourcePoint" />
          </mxGeometry>
        </mxCell>
        <mxCell id="XsQoimjce_yVpQ9bQ-w0-13" value="" style="sketch=0;points=[[0,0,0],[0.25,0,0],[0.5,0,0],[0.75,0,0],[1,0,0],[0,1,0],[0.25,1,0],[0.5,1,0],[0.75,1,0],[1,1,0],[0,0.25,0],[0,0.5,0],[0,0.75,0],[1,0.25,0],[1,0.5,0],[1,0.75,0]];outlineConnect=0;fontColor=#232F3E;gradientColor=#945DF2;gradientDirection=north;fillColor=#5A30B5;strokeColor=#ffffff;dashed=0;verticalLabelPosition=bottom;verticalAlign=top;align=center;html=1;fontSize=12;fontStyle=0;aspect=fixed;shape=mxgraph.aws4.resourceIcon;resIcon=mxgraph.aws4.route_53;" vertex="1" parent="1">
          <mxGeometry x="530" y="77" width="58" height="58" as="geometry" />
        </mxCell>
        <mxCell id="XsQoimjce_yVpQ9bQ-w0-14" value="Client" style="sketch=0;outlineConnect=0;fontColor=#232F3E;gradientColor=none;strokeColor=#232F3E;fillColor=#ffffff;dashed=0;verticalLabelPosition=bottom;verticalAlign=top;align=center;html=1;fontSize=12;fontStyle=0;aspect=fixed;shape=mxgraph.aws4.resourceIcon;resIcon=mxgraph.aws4.client;" vertex="1" parent="1">
          <mxGeometry x="620" y="280" width="80" height="80" as="geometry" />
        </mxCell>
        <mxCell id="XsQoimjce_yVpQ9bQ-w0-15" value="" style="outlineConnect=0;dashed=0;verticalLabelPosition=bottom;verticalAlign=top;align=center;html=1;shape=mxgraph.aws3.dynamo_db;fillColor=#2E73B8;gradientColor=none;" vertex="1" parent="1">
          <mxGeometry x="220" y="400" width="60" height="71" as="geometry" />
        </mxCell>
        <mxCell id="XsQoimjce_yVpQ9bQ-w0-16" value="" style="outlineConnect=0;dashed=0;verticalLabelPosition=bottom;verticalAlign=top;align=center;html=1;shape=mxgraph.aws3.lambda;fillColor=#F58534;gradientColor=none;" vertex="1" parent="1">
          <mxGeometry x="377.5" y="394.5" width="70" height="82" as="geometry" />
        </mxCell>
        <mxCell id="XsQoimjce_yVpQ9bQ-w0-17" value="" style="sketch=0;points=[[0,0,0],[0.25,0,0],[0.5,0,0],[0.75,0,0],[1,0,0],[0,1,0],[0.25,1,0],[0.5,1,0],[0.75,1,0],[1,1,0],[0,0.25,0],[0,0.5,0],[0,0.75,0],[1,0.25,0],[1,0.5,0],[1,0.75,0]];outlineConnect=0;fontColor=#232F3E;gradientColor=#FF4F8B;gradientDirection=north;fillColor=#BC1356;strokeColor=#ffffff;dashed=0;verticalLabelPosition=bottom;verticalAlign=top;align=center;html=1;fontSize=12;fontStyle=0;aspect=fixed;shape=mxgraph.aws4.resourceIcon;resIcon=mxgraph.aws4.api_gateway;" vertex="1" parent="1">
          <mxGeometry x="521" y="401.5" width="68" height="68" as="geometry" />
        </mxCell>
        <mxCell id="XsQoimjce_yVpQ9bQ-w0-38" style="edgeStyle=orthogonalEdgeStyle;rounded=0;orthogonalLoop=1;jettySize=auto;html=1;fontSize=10;" edge="1" parent="1" source="XsQoimjce_yVpQ9bQ-w0-18" target="XsQoimjce_yVpQ9bQ-w0-14">
          <mxGeometry relative="1" as="geometry">
            <mxPoint x="710" y="320" as="targetPoint" />
            <Array as="points">
              <mxPoint x="730" y="295" />
              <mxPoint x="730" y="320" />
            </Array>
          </mxGeometry>
        </mxCell>
        <mxCell id="XsQoimjce_yVpQ9bQ-w0-18" value="" style="sketch=0;outlineConnect=0;fontColor=#232F3E;gradientColor=none;fillColor=#232F3D;strokeColor=none;dashed=0;verticalLabelPosition=bottom;verticalAlign=top;align=center;html=1;fontSize=12;fontStyle=0;aspect=fixed;pointerEvents=1;shape=mxgraph.aws4.users;" vertex="1" parent="1">
          <mxGeometry x="750" y="250" width="90" height="90" as="geometry" />
        </mxCell>
        <mxCell id="XsQoimjce_yVpQ9bQ-w0-22" value="" style="sketch=0;pointerEvents=1;shadow=0;dashed=0;html=1;strokeColor=none;fillColor=#505050;labelPosition=center;verticalLabelPosition=bottom;verticalAlign=top;outlineConnect=0;align=center;shape=mxgraph.office.users.administrator;" vertex="1" parent="1">
          <mxGeometry x="20" width="40" height="36" as="geometry" />
        </mxCell>
        <mxCell id="XsQoimjce_yVpQ9bQ-w0-32" value="S3 Bucket (HTML, CSS, Python files)" style="text;strokeColor=none;align=center;fillColor=none;html=1;verticalAlign=middle;whiteSpace=wrap;rounded=0;fontSize=10;" vertex="1" parent="1">
          <mxGeometry x="245" y="155" width="70" height="20" as="geometry" />
        </mxCell>
        <mxCell id="XsQoimjce_yVpQ9bQ-w0-33" value="CloudFront Distro&lt;br&gt;(CDN)" style="text;strokeColor=none;align=center;fillColor=none;html=1;verticalAlign=middle;whiteSpace=wrap;rounded=0;fontSize=10;" vertex="1" parent="1">
          <mxGeometry x="390" y="150" width="60" height="30" as="geometry" />
        </mxCell>
        <mxCell id="XsQoimjce_yVpQ9bQ-w0-35" value="Route53 (DNS)&lt;br&gt;https://trinatking.com" style="text;strokeColor=none;align=center;fillColor=none;html=1;verticalAlign=middle;whiteSpace=wrap;rounded=0;fontSize=10;" vertex="1" parent="1">
          <mxGeometry x="529" y="145" width="60" height="30" as="geometry" />
        </mxCell>
        <mxCell id="XsQoimjce_yVpQ9bQ-w0-39" style="edgeStyle=orthogonalEdgeStyle;rounded=0;orthogonalLoop=1;jettySize=auto;html=1;exitX=0.5;exitY=0;exitDx=0;exitDy=0;exitPerimeter=0;entryX=0.5;entryY=1;entryDx=0;entryDy=0;fontSize=10;" edge="1" parent="1" source="XsQoimjce_yVpQ9bQ-w0-37" target="XsQoimjce_yVpQ9bQ-w0-35">
          <mxGeometry relative="1" as="geometry" />
        </mxCell>
        <mxCell id="XsQoimjce_yVpQ9bQ-w0-37" value="" style="outlineConnect=0;dashed=0;verticalLabelPosition=bottom;verticalAlign=top;align=center;html=1;shape=mxgraph.aws3.certificate_manager_2;fillColor=#759C3E;gradientColor=none;fontSize=10;" vertex="1" parent="1">
          <mxGeometry x="525.13" y="220" width="69.25" height="50" as="geometry" />
        </mxCell>
        <mxCell id="XsQoimjce_yVpQ9bQ-w0-40" value="Certificate Manager (SSL)" style="text;strokeColor=none;align=center;fillColor=none;html=1;verticalAlign=middle;whiteSpace=wrap;rounded=0;fontSize=10;" vertex="1" parent="1">
          <mxGeometry x="529" y="280" width="60" height="30" as="geometry" />
        </mxCell>
      </root>
    </mxGraphModel>
  </diagram>
</mxfile>
